<svg xmlns="http://www.w3.org/2000/svg" xmlns:xlink="http://www.w3.org/1999/xlink" width="1080" zoomAndPan="magnify" viewBox="0 0 810 809.999993" height="1080" preserveAspectRatio="xMidYMid meet" version="1.0"><defs><g/><clipPath id="ceb39aba25"><path d="M 416.78125 264.007812 L 451.671875 264.007812 L 451.671875 489.214844 L 416.78125 489.214844 Z M 416.78125 264.007812 " clip-rule="nonzero"/></clipPath></defs><rect x="-81" width="972" fill="#ffffff" y="-80.999999" height="971.999992" fill-opacity="1"/><rect x="-81" width="972" fill="#eee4d3" y="-80.999999" height="971.999992" fill-opacity="1"/><g clip-path="url(#ceb39aba25)"><path stroke-linecap="butt" transform="matrix(1.057322, 0, 0, 1.057322, 416.781463, 264.006804)" fill="none" stroke-linejoin="miter" d="M -0.00020101 0.000954281 L 33.061663 0.000954281 L 33.061663 213.201761 L -0.00020101 213.201761 Z M -0.00020101 0.000954281 " stroke="#242426" stroke-width="9.930751" stroke-opacity="1" stroke-miterlimit="4"/></g><path stroke-linecap="butt" transform="matrix(0.264573, -1.023685, 1.023685, 0.264573, 358.259225, 488.780035)" fill="none" stroke-linejoin="miter" d="M 0.000501558 2.501703 L 219.710644 2.501145 " stroke="#242426" stroke-width="5" stroke-opacity="1" stroke-miterlimit="4"/><g fill="#242426" fill-opacity="1"><g transform="translate(264.583963, 543.708714)"><g><path d="M 20.171875 0 L 15.796875 0 L 14.21875 -4.84375 L 6.171875 -4.84375 L 4.578125 0 L 0.3125 0 L 7.578125 -21.015625 L 12.90625 -21.015625 Z M 9.984375 -16.625 L 7.28125 -8.34375 L 13.0625 -8.34375 L 10.34375 -16.625 Z M 9.984375 -16.625 "/></g></g></g><g fill="#242426" fill-opacity="1"><g transform="translate(289.095454, 543.708714)"><g><path d="M 2.734375 0 L 2.734375 -21.015625 L 11.171875 -21.015625 C 13.347656 -21.015625 14.988281 -20.515625 16.09375 -19.515625 C 17.195312 -18.515625 17.75 -17.128906 17.75 -15.359375 C 17.75 -14.085938 17.425781 -13.046875 16.78125 -12.234375 C 16.132812 -11.421875 15.171875 -10.796875 13.890625 -10.359375 L 13.890625 -10.0625 C 14.546875 -9.769531 15.078125 -9.34375 15.484375 -8.78125 C 15.890625 -8.21875 16.273438 -7.378906 16.640625 -6.265625 L 18.75 0 L 14.46875 0 L 12.421875 -6.28125 C 12.210938 -6.914062 11.972656 -7.40625 11.703125 -7.75 C 11.441406 -8.101562 11.109375 -8.359375 10.703125 -8.515625 C 10.296875 -8.671875 9.765625 -8.75 9.109375 -8.75 L 6.890625 -8.75 L 6.890625 0 Z M 10.671875 -12.046875 C 12.679688 -12.046875 13.6875 -12.984375 13.6875 -14.859375 C 13.6875 -16.765625 12.679688 -17.71875 10.671875 -17.71875 L 6.890625 -17.71875 L 6.890625 -12.046875 Z M 10.671875 -12.046875 "/></g></g></g><g fill="#242426" fill-opacity="1"><g transform="translate(312.773443, 543.708714)"><g><path d="M 11.484375 0.296875 C 9.546875 0.296875 7.835938 -0.101562 6.359375 -0.90625 C 4.890625 -1.707031 3.738281 -2.914062 2.90625 -4.53125 C 2.070312 -6.144531 1.65625 -8.132812 1.65625 -10.5 C 1.65625 -12.875 2.070312 -14.867188 2.90625 -16.484375 C 3.738281 -18.097656 4.890625 -19.304688 6.359375 -20.109375 C 7.835938 -20.910156 9.546875 -21.3125 11.484375 -21.3125 C 13.503906 -21.3125 15.21875 -20.914062 16.625 -20.125 C 18.039062 -19.332031 19.050781 -18.128906 19.65625 -16.515625 L 16.625 -14.65625 L 16.265625 -14.671875 C 15.816406 -15.765625 15.207031 -16.546875 14.4375 -17.015625 C 13.664062 -17.492188 12.679688 -17.734375 11.484375 -17.734375 C 9.742188 -17.734375 8.382812 -17.15625 7.40625 -16 C 6.425781 -14.84375 5.9375 -13.007812 5.9375 -10.5 C 5.9375 -8 6.425781 -6.171875 7.40625 -5.015625 C 8.382812 -3.867188 9.742188 -3.296875 11.484375 -3.296875 C 14.210938 -3.296875 15.882812 -4.617188 16.5 -7.265625 L 16.859375 -7.265625 L 19.921875 -5.671875 C 19.347656 -3.679688 18.363281 -2.1875 16.96875 -1.1875 C 15.582031 -0.195312 13.753906 0.296875 11.484375 0.296875 Z M 11.484375 0.296875 "/></g></g></g><g fill="#242426" fill-opacity="1"><g transform="translate(337.414273, 543.708714)"><g><path d="M 16.296875 -13.109375 L 16.296875 -21.015625 L 20.4375 -21.015625 L 20.4375 0 L 16.296875 0 L 16.296875 -9.578125 L 6.890625 -9.578125 L 6.890625 0 L 2.734375 0 L 2.734375 -21.015625 L 6.890625 -21.015625 L 6.890625 -13.109375 Z M 16.296875 -13.109375 "/></g></g></g><g fill="#242426" fill-opacity="1"><g transform="translate(364.627455, 543.708714)"><g><path d="M 6.890625 0 L 2.734375 0 L 2.734375 -21.015625 L 6.890625 -21.015625 Z M 6.890625 0 "/></g></g></g><g fill="#242426" fill-opacity="1"><g transform="translate(378.289055, 543.708714)"><g><path d="M 16.84375 -21.015625 L 16.84375 -17.515625 L 10.78125 -17.515625 L 10.78125 0 L 6.640625 0 L 6.640625 -17.515625 L 0.578125 -17.515625 L 0.578125 -21.015625 Z M 16.84375 -21.015625 "/></g></g></g><g fill="#242426" fill-opacity="1"><g transform="translate(399.739581, 543.708714)"><g><path d="M 16.296875 -13.109375 L 16.296875 -21.015625 L 20.4375 -21.015625 L 20.4375 0 L 16.296875 0 L 16.296875 -9.578125 L 6.890625 -9.578125 L 6.890625 0 L 2.734375 0 L 2.734375 -21.015625 L 6.890625 -21.015625 L 6.890625 -13.109375 Z M 16.296875 -13.109375 "/></g></g></g><g fill="#242426" fill-opacity="1"><g transform="translate(426.952763, 543.708714)"><g><path d="M 6.890625 -9.234375 L 6.890625 -3.484375 L 16.921875 -3.484375 L 16.921875 0 L 2.734375 0 L 2.734375 -21.015625 L 16.6875 -21.015625 L 16.6875 -17.53125 L 6.890625 -17.53125 L 6.890625 -12.625 L 15.453125 -12.625 L 15.453125 -9.234375 Z M 6.890625 -9.234375 "/></g></g></g><g fill="#242426" fill-opacity="1"><g transform="translate(449.049971, 543.708714)"><g><path d="M 2.734375 0 L 2.734375 -21.015625 L 11.171875 -21.015625 C 13.347656 -21.015625 14.988281 -20.515625 16.09375 -19.515625 C 17.195312 -18.515625 17.75 -17.128906 17.75 -15.359375 C 17.75 -14.085938 17.425781 -13.046875 16.78125 -12.234375 C 16.132812 -11.421875 15.171875 -10.796875 13.890625 -10.359375 L 13.890625 -10.0625 C 14.546875 -9.769531 15.078125 -9.34375 15.484375 -8.78125 C 15.890625 -8.21875 16.273438 -7.378906 16.640625 -6.265625 L 18.75 0 L 14.46875 0 L 12.421875 -6.28125 C 12.210938 -6.914062 11.972656 -7.40625 11.703125 -7.75 C 11.441406 -8.101562 11.109375 -8.359375 10.703125 -8.515625 C 10.296875 -8.671875 9.765625 -8.75 9.109375 -8.75 L 6.890625 -8.75 L 6.890625 0 Z M 10.671875 -12.046875 C 12.679688 -12.046875 13.6875 -12.984375 13.6875 -14.859375 C 13.6875 -16.765625 12.679688 -17.71875 10.671875 -17.71875 L 6.890625 -17.71875 L 6.890625 -12.046875 Z M 10.671875 -12.046875 "/></g></g></g><g fill="#242426" fill-opacity="1"><g transform="translate(472.727958, 543.708714)"><g><path d="M 6.546875 0 L 2.734375 0 L 2.734375 -21.015625 L 8.171875 -21.015625 L 13.484375 -5.5625 L 13.78125 -5.5625 L 19.078125 -21.015625 L 24.375 -21.015625 L 24.375 0 L 20.4375 0 L 20.4375 -13.890625 L 20.078125 -13.9375 L 15.21875 0 L 11.75 0 L 6.90625 -13.9375 L 6.546875 -13.890625 Z M 6.546875 0 "/></g></g></g><g fill="#242426" fill-opacity="1"><g transform="translate(503.878715, 543.708714)"><g><path d="M 20.171875 0 L 15.796875 0 L 14.21875 -4.84375 L 6.171875 -4.84375 L 4.578125 0 L 0.3125 0 L 7.578125 -21.015625 L 12.90625 -21.015625 Z M 9.984375 -16.625 L 7.28125 -8.34375 L 13.0625 -8.34375 L 10.34375 -16.625 Z M 9.984375 -16.625 "/></g></g></g><g fill="#242426" fill-opacity="1"><g transform="translate(528.390203, 543.708714)"><g><path d="M 6.890625 -21.015625 L 6.890625 -3.484375 L 16.328125 -3.484375 L 16.328125 0 L 2.734375 0 L 2.734375 -21.015625 Z M 6.890625 -21.015625 "/></g></g></g><g fill="#242426" fill-opacity="1"><g transform="translate(296.818809, 566.018899)"><g><path d="M 9.734375 -8.375 L 11.109375 -8.375 L 8.59375 0 L 7.390625 0 L 5.828125 -5.203125 L 5.640625 -6.15625 L 5.421875 -5.15625 L 3.875 0 L 2.65625 0 L 0.140625 -8.375 L 1.5 -8.375 L 3.21875 -2 L 5.171875 -8.375 L 6.109375 -8.375 L 8.03125 -2.0625 Z M 9.734375 -8.375 "/></g></g></g><g fill="#242426" fill-opacity="1"><g transform="translate(314.571198, 566.018899)"><g><path d="M 2.921875 -7.359375 L 2.921875 -1.015625 L 3.546875 -1.015625 L 3.546875 0 L 1.078125 0 L 1.078125 -1.015625 L 1.703125 -1.015625 L 1.703125 -7.359375 L 1.078125 -7.359375 L 1.078125 -8.375 L 3.546875 -8.375 L 3.546875 -7.359375 Z M 2.921875 -7.359375 "/></g></g></g><g fill="#242426" fill-opacity="1"><g transform="translate(325.659629, 566.018899)"><g><path d="M 7.875 -8.375 L 7.875 0 L 6.625 0 L 1.953125 -6.421875 L 1.953125 0 L 0.65625 0 L 0.65625 -8.375 L 1.953125 -8.375 L 6.640625 -1.90625 L 6.640625 -8.375 Z M 7.875 -8.375 "/></g></g></g><g fill="#242426" fill-opacity="1"><g transform="translate(340.670813, 566.018899)"><g><path d="M 0.703125 0 L 0.703125 -8.375 L 3.6875 -8.375 C 4.289062 -8.375 4.820312 -8.265625 5.28125 -8.046875 C 5.75 -7.828125 6.140625 -7.523438 6.453125 -7.140625 C 6.765625 -6.765625 7 -6.320312 7.15625 -5.8125 C 7.320312 -5.300781 7.40625 -4.757812 7.40625 -4.1875 C 7.40625 -3.601562 7.320312 -3.054688 7.15625 -2.546875 C 6.988281 -2.035156 6.753906 -1.59375 6.453125 -1.21875 C 6.148438 -0.84375 5.789062 -0.546875 5.375 -0.328125 C 4.96875 -0.109375 4.53125 0 4.0625 0 Z M 3.640625 -1.140625 C 4.085938 -1.140625 4.46875 -1.222656 4.78125 -1.390625 C 5.09375 -1.554688 5.351562 -1.773438 5.5625 -2.046875 C 5.769531 -2.328125 5.921875 -2.648438 6.015625 -3.015625 C 6.109375 -3.390625 6.15625 -3.78125 6.15625 -4.1875 C 6.15625 -4.582031 6.109375 -4.96875 6.015625 -5.34375 C 5.921875 -5.71875 5.769531 -6.046875 5.5625 -6.328125 C 5.363281 -6.609375 5.101562 -6.832031 4.78125 -7 C 4.46875 -7.175781 4.085938 -7.265625 3.640625 -7.265625 L 1.953125 -7.265625 L 1.953125 -1.140625 Z M 3.640625 -1.140625 "/></g></g></g><g fill="#242426" fill-opacity="1"><g transform="translate(355.126666, 566.018899)"><g><path d="M 4.546875 -8.5 C 5.109375 -8.5 5.640625 -8.382812 6.140625 -8.15625 C 6.648438 -7.925781 7.09375 -7.613281 7.46875 -7.21875 C 7.84375 -6.832031 8.140625 -6.375 8.359375 -5.84375 C 8.578125 -5.320312 8.6875 -4.769531 8.6875 -4.1875 C 8.6875 -3.601562 8.578125 -3.050781 8.359375 -2.53125 C 8.140625 -2.007812 7.84375 -1.550781 7.46875 -1.15625 C 7.09375 -0.769531 6.648438 -0.460938 6.140625 -0.234375 C 5.640625 -0.00390625 5.101562 0.109375 4.53125 0.109375 C 3.96875 0.109375 3.429688 -0.00390625 2.921875 -0.234375 C 2.421875 -0.460938 1.984375 -0.769531 1.609375 -1.15625 C 1.234375 -1.550781 0.9375 -2.007812 0.71875 -2.53125 C 0.507812 -3.050781 0.40625 -3.601562 0.40625 -4.1875 C 0.40625 -4.769531 0.507812 -5.320312 0.71875 -5.84375 C 0.9375 -6.375 1.234375 -6.832031 1.609375 -7.21875 C 1.992188 -7.613281 2.4375 -7.925781 2.9375 -8.15625 C 3.445312 -8.382812 3.984375 -8.5 4.546875 -8.5 Z M 4.546875 -1.0625 C 4.953125 -1.0625 5.328125 -1.140625 5.671875 -1.296875 C 6.023438 -1.460938 6.332031 -1.6875 6.59375 -1.96875 C 6.851562 -2.25 7.054688 -2.582031 7.203125 -2.96875 C 7.359375 -3.351562 7.4375 -3.757812 7.4375 -4.1875 C 7.4375 -4.625 7.359375 -5.03125 7.203125 -5.40625 C 7.054688 -5.789062 6.851562 -6.125 6.59375 -6.40625 C 6.332031 -6.6875 6.023438 -6.90625 5.671875 -7.0625 C 5.328125 -7.226562 4.953125 -7.3125 4.546875 -7.3125 C 4.148438 -7.3125 3.773438 -7.226562 3.421875 -7.0625 C 3.066406 -6.90625 2.757812 -6.6875 2.5 -6.40625 C 2.238281 -6.125 2.03125 -5.789062 1.875 -5.40625 C 1.726562 -5.03125 1.65625 -4.625 1.65625 -4.1875 C 1.65625 -3.757812 1.726562 -3.351562 1.875 -2.96875 C 2.03125 -2.582031 2.238281 -2.25 2.5 -1.96875 C 2.757812 -1.6875 3.066406 -1.460938 3.421875 -1.296875 C 3.773438 -1.140625 4.148438 -1.0625 4.546875 -1.0625 Z M 4.546875 -1.0625 "/></g></g></g><g fill="#242426" fill-opacity="1"><g transform="translate(370.634108, 566.018899)"><g><path d="M 9.734375 -8.375 L 11.109375 -8.375 L 8.59375 0 L 7.390625 0 L 5.828125 -5.203125 L 5.640625 -6.15625 L 5.421875 -5.15625 L 3.875 0 L 2.65625 0 L 0.140625 -8.375 L 1.5 -8.375 L 3.21875 -2 L 5.171875 -8.375 L 6.109375 -8.375 L 8.03125 -2.0625 Z M 9.734375 -8.375 "/></g></g></g><g fill="#242426" fill-opacity="1"><g transform="translate(388.386497, 566.018899)"><g><path d="M 6.25 -2.34375 C 6.25 -1.988281 6.175781 -1.660156 6.03125 -1.359375 C 5.894531 -1.054688 5.6875 -0.789062 5.40625 -0.5625 C 4.863281 -0.101562 4.164062 0.125 3.3125 0.125 C 2.65625 0.125 2.054688 -0.0078125 1.515625 -0.28125 C 0.984375 -0.5625 0.59375 -0.925781 0.34375 -1.375 L 1.390625 -1.921875 C 1.546875 -1.640625 1.796875 -1.421875 2.140625 -1.265625 C 2.484375 -1.117188 2.875 -1.046875 3.3125 -1.046875 C 4.457031 -1.046875 5.03125 -1.476562 5.03125 -2.34375 C 5.03125 -2.507812 5 -2.648438 4.9375 -2.765625 C 4.882812 -2.890625 4.796875 -3.003906 4.671875 -3.109375 C 4.390625 -3.347656 3.882812 -3.5625 3.15625 -3.75 C 2.71875 -3.851562 2.34375 -3.972656 2.03125 -4.109375 C 1.726562 -4.242188 1.472656 -4.398438 1.265625 -4.578125 C 0.765625 -4.984375 0.515625 -5.515625 0.515625 -6.171875 C 0.515625 -6.503906 0.578125 -6.8125 0.703125 -7.09375 C 0.835938 -7.382812 1.023438 -7.640625 1.265625 -7.859375 C 1.503906 -8.066406 1.785156 -8.222656 2.109375 -8.328125 C 2.441406 -8.441406 2.804688 -8.5 3.203125 -8.5 C 3.773438 -8.5 4.300781 -8.382812 4.78125 -8.15625 C 5.269531 -7.9375 5.640625 -7.628906 5.890625 -7.234375 L 4.9375 -6.640625 C 4.707031 -6.910156 4.441406 -7.101562 4.140625 -7.21875 C 3.847656 -7.332031 3.535156 -7.390625 3.203125 -7.390625 C 2.960938 -7.390625 2.742188 -7.347656 2.546875 -7.265625 C 2.347656 -7.191406 2.1875 -7.101562 2.0625 -7 C 1.945312 -6.894531 1.863281 -6.773438 1.8125 -6.640625 C 1.757812 -6.503906 1.734375 -6.359375 1.734375 -6.203125 C 1.734375 -6.097656 1.75 -5.992188 1.78125 -5.890625 C 1.8125 -5.785156 1.882812 -5.675781 2 -5.5625 C 2.125 -5.445312 2.300781 -5.332031 2.53125 -5.21875 C 2.757812 -5.113281 3.070312 -5.007812 3.46875 -4.90625 C 3.9375 -4.789062 4.332031 -4.664062 4.65625 -4.53125 C 4.976562 -4.394531 5.25 -4.234375 5.46875 -4.046875 C 5.988281 -3.617188 6.25 -3.050781 6.25 -2.34375 Z M 6.25 -2.34375 "/></g></g></g><g fill="#242426" fill-opacity="1"><g transform="translate(401.684428, 566.018899)"><g/></g></g><g fill="#242426" fill-opacity="1"><g transform="translate(411.2132, 566.018899)"><g><path d="M 5.28125 -6.0625 C 5.257812 -5.90625 5.203125 -5.753906 5.109375 -5.609375 C 5.015625 -5.472656 4.898438 -5.335938 4.765625 -5.203125 C 4.640625 -5.066406 4.488281 -4.925781 4.3125 -4.78125 C 4.132812 -4.644531 3.960938 -4.5 3.796875 -4.34375 C 3.953125 -4.175781 4.101562 -4.003906 4.25 -3.828125 C 4.40625 -3.648438 4.5625 -3.476562 4.71875 -3.3125 L 5.59375 -2.359375 C 5.820312 -2.566406 6.039062 -2.785156 6.25 -3.015625 C 6.457031 -3.242188 6.65625 -3.488281 6.84375 -3.75 L 7.703125 -2.984375 C 7.484375 -2.710938 7.257812 -2.457031 7.03125 -2.21875 C 6.8125 -1.976562 6.578125 -1.75 6.328125 -1.53125 L 7.75 0.03125 L 6.21875 0.03125 C 6.132812 -0.0625 6.054688 -0.144531 5.984375 -0.21875 C 5.910156 -0.300781 5.84375 -0.378906 5.78125 -0.453125 L 5.46875 -0.8125 C 5.457031 -0.800781 5.441406 -0.789062 5.421875 -0.78125 C 5.410156 -0.78125 5.398438 -0.769531 5.390625 -0.75 C 5.210938 -0.625 5.039062 -0.503906 4.875 -0.390625 C 4.707031 -0.273438 4.523438 -0.171875 4.328125 -0.078125 C 4.128906 0.015625 3.910156 0.0859375 3.671875 0.140625 C 3.429688 0.191406 3.164062 0.21875 2.875 0.21875 C 2.5625 0.21875 2.257812 0.171875 1.96875 0.078125 C 1.6875 -0.015625 1.4375 -0.148438 1.21875 -0.328125 C 1 -0.515625 0.820312 -0.738281 0.6875 -1 C 0.5625 -1.257812 0.5 -1.5625 0.5 -1.90625 C 0.5 -2.195312 0.539062 -2.460938 0.625 -2.703125 C 0.707031 -2.953125 0.820312 -3.179688 0.96875 -3.390625 C 1.125 -3.597656 1.300781 -3.789062 1.5 -3.96875 C 1.695312 -4.15625 1.90625 -4.332031 2.125 -4.5 C 1.882812 -4.769531 1.644531 -5.035156 1.40625 -5.296875 C 1.164062 -5.566406 0.925781 -5.835938 0.6875 -6.109375 L 0.6875 -6.1875 C 0.6875 -6.519531 0.753906 -6.828125 0.890625 -7.109375 C 1.023438 -7.398438 1.203125 -7.648438 1.421875 -7.859375 C 1.648438 -8.066406 1.90625 -8.226562 2.1875 -8.34375 C 2.46875 -8.46875 2.757812 -8.53125 3.0625 -8.53125 C 3.34375 -8.53125 3.617188 -8.472656 3.890625 -8.359375 C 4.160156 -8.253906 4.398438 -8.101562 4.609375 -7.90625 C 4.816406 -7.71875 4.984375 -7.5 5.109375 -7.25 C 5.242188 -7 5.3125 -6.726562 5.3125 -6.4375 C 5.3125 -6.375 5.304688 -6.3125 5.296875 -6.25 C 5.296875 -6.1875 5.289062 -6.125 5.28125 -6.0625 Z M 3.59375 -1 C 3.988281 -1.164062 4.363281 -1.375 4.71875 -1.625 C 4.507812 -1.851562 4.300781 -2.082031 4.09375 -2.3125 C 3.894531 -2.539062 3.691406 -2.769531 3.484375 -3 L 2.859375 -3.6875 C 2.710938 -3.570312 2.566406 -3.453125 2.421875 -3.328125 C 2.273438 -3.203125 2.144531 -3.066406 2.03125 -2.921875 C 1.914062 -2.785156 1.828125 -2.632812 1.765625 -2.46875 C 1.703125 -2.3125 1.671875 -2.140625 1.671875 -1.953125 C 1.671875 -1.566406 1.78125 -1.285156 2 -1.109375 C 2.226562 -0.929688 2.503906 -0.84375 2.828125 -0.84375 C 2.960938 -0.84375 3.09375 -0.859375 3.21875 -0.890625 C 3.351562 -0.921875 3.476562 -0.957031 3.59375 -1 Z M 4.140625 -6.375 C 4.140625 -6.507812 4.109375 -6.640625 4.046875 -6.765625 C 3.992188 -6.890625 3.914062 -7 3.8125 -7.09375 C 3.71875 -7.195312 3.601562 -7.28125 3.46875 -7.34375 C 3.34375 -7.40625 3.210938 -7.4375 3.078125 -7.4375 C 2.796875 -7.4375 2.546875 -7.335938 2.328125 -7.140625 C 2.109375 -6.941406 1.96875 -6.703125 1.90625 -6.421875 L 3.03125 -5.15625 C 3.144531 -5.238281 3.253906 -5.320312 3.359375 -5.40625 C 3.460938 -5.5 3.5625 -5.582031 3.65625 -5.65625 C 3.664062 -5.664062 3.691406 -5.6875 3.734375 -5.71875 C 3.773438 -5.757812 3.800781 -5.78125 3.8125 -5.78125 C 3.90625 -5.863281 3.976562 -5.941406 4.03125 -6.015625 C 4.09375 -6.085938 4.128906 -6.1875 4.140625 -6.3125 Z M 4.140625 -6.375 "/></g></g></g><g fill="#242426" fill-opacity="1"><g transform="translate(425.539085, 566.018899)"><g/></g></g><g fill="#242426" fill-opacity="1"><g transform="translate(435.067857, 566.018899)"><g><path d="M 6.3125 -8.375 L 6.3125 -7.265625 L 1.890625 -7.265625 L 1.890625 -4.984375 L 5.890625 -4.984375 L 5.890625 -3.84375 L 1.890625 -3.84375 L 1.890625 0 L 0.65625 0 L 0.65625 -8.375 Z M 6.3125 -8.375 "/></g></g></g><g fill="#242426" fill-opacity="1"><g transform="translate(447.893166, 566.018899)"><g><path d="M 7.578125 0 L 6.03125 0 L 3.390625 -3.609375 L 1.921875 -3.609375 L 1.921875 0 L 0.6875 0 L 0.6875 -8.375 L 4.09375 -8.375 C 4.414062 -8.375 4.722656 -8.3125 5.015625 -8.1875 C 5.316406 -8.0625 5.578125 -7.890625 5.796875 -7.671875 C 6.015625 -7.460938 6.1875 -7.210938 6.3125 -6.921875 C 6.4375 -6.640625 6.5 -6.332031 6.5 -6 C 6.5 -5.726562 6.453125 -5.46875 6.359375 -5.21875 C 6.273438 -4.976562 6.15625 -4.757812 6 -4.5625 C 5.851562 -4.363281 5.671875 -4.191406 5.453125 -4.046875 C 5.242188 -3.898438 5.015625 -3.789062 4.765625 -3.71875 Z M 4.09375 -4.765625 C 4.25 -4.765625 4.398438 -4.796875 4.546875 -4.859375 C 4.703125 -4.929688 4.832031 -5.019531 4.9375 -5.125 C 5.050781 -5.238281 5.140625 -5.375 5.203125 -5.53125 C 5.265625 -5.6875 5.296875 -5.851562 5.296875 -6.03125 C 5.296875 -6.195312 5.265625 -6.351562 5.203125 -6.5 C 5.140625 -6.65625 5.050781 -6.789062 4.9375 -6.90625 C 4.832031 -7.019531 4.703125 -7.109375 4.546875 -7.171875 C 4.398438 -7.242188 4.25 -7.28125 4.09375 -7.28125 L 1.921875 -7.28125 L 1.921875 -4.765625 Z M 4.09375 -4.765625 "/></g></g></g><g fill="#242426" fill-opacity="1"><g transform="translate(462.089082, 566.018899)"><g><path d="M 1.46875 0 L 0.125 0 L 3.609375 -8.375 L 4.96875 -8.375 L 8.453125 0 L 7.125 0 L 6.03125 -2.625 L 2.5625 -2.625 Z M 3.03125 -3.75 L 5.546875 -3.75 L 4.296875 -6.78125 Z M 3.03125 -3.75 "/></g></g></g><g fill="#242426" fill-opacity="1"><g transform="translate(477.182984, 566.018899)"><g><path d="M 7.796875 -8.375 L 9.03125 -8.375 L 9.03125 0 L 7.8125 0 L 7.8125 -6.421875 L 5.359375 -3.0625 L 4.40625 -3.0625 L 1.953125 -6.421875 L 1.953125 0 L 0.703125 0 L 0.703125 -8.375 L 1.953125 -8.375 L 4.875 -4.34375 Z M 7.796875 -8.375 "/></g></g></g><g fill="#242426" fill-opacity="1"><g transform="translate(493.375714, 566.018899)"><g><path d="M 5.78125 -8.375 L 5.78125 -7.265625 L 1.890625 -7.265625 L 1.890625 -4.984375 L 5.34375 -4.984375 L 5.34375 -3.84375 L 1.890625 -3.84375 L 1.890625 -1.140625 L 5.78125 -1.140625 L 5.78125 0 L 0.65625 0 L 0.65625 -8.375 Z M 5.78125 -8.375 "/></g></g></g><g fill="#242426" fill-opacity="1"><g transform="translate(506.307376, 566.018899)"><g><path d="M 6.25 -2.34375 C 6.25 -1.988281 6.175781 -1.660156 6.03125 -1.359375 C 5.894531 -1.054688 5.6875 -0.789062 5.40625 -0.5625 C 4.863281 -0.101562 4.164062 0.125 3.3125 0.125 C 2.65625 0.125 2.054688 -0.0078125 1.515625 -0.28125 C 0.984375 -0.5625 0.59375 -0.925781 0.34375 -1.375 L 1.390625 -1.921875 C 1.546875 -1.640625 1.796875 -1.421875 2.140625 -1.265625 C 2.484375 -1.117188 2.875 -1.046875 3.3125 -1.046875 C 4.457031 -1.046875 5.03125 -1.476562 5.03125 -2.34375 C 5.03125 -2.507812 5 -2.648438 4.9375 -2.765625 C 4.882812 -2.890625 4.796875 -3.003906 4.671875 -3.109375 C 4.390625 -3.347656 3.882812 -3.5625 3.15625 -3.75 C 2.71875 -3.851562 2.34375 -3.972656 2.03125 -4.109375 C 1.726562 -4.242188 1.472656 -4.398438 1.265625 -4.578125 C 0.765625 -4.984375 0.515625 -5.515625 0.515625 -6.171875 C 0.515625 -6.503906 0.578125 -6.8125 0.703125 -7.09375 C 0.835938 -7.382812 1.023438 -7.640625 1.265625 -7.859375 C 1.503906 -8.066406 1.785156 -8.222656 2.109375 -8.328125 C 2.441406 -8.441406 2.804688 -8.5 3.203125 -8.5 C 3.773438 -8.5 4.300781 -8.382812 4.78125 -8.15625 C 5.269531 -7.9375 5.640625 -7.628906 5.890625 -7.234375 L 4.9375 -6.640625 C 4.707031 -6.910156 4.441406 -7.101562 4.140625 -7.21875 C 3.847656 -7.332031 3.535156 -7.390625 3.203125 -7.390625 C 2.960938 -7.390625 2.742188 -7.347656 2.546875 -7.265625 C 2.347656 -7.191406 2.1875 -7.101562 2.0625 -7 C 1.945312 -6.894531 1.863281 -6.773438 1.8125 -6.640625 C 1.757812 -6.503906 1.734375 -6.359375 1.734375 -6.203125 C 1.734375 -6.097656 1.75 -5.992188 1.78125 -5.890625 C 1.8125 -5.785156 1.882812 -5.675781 2 -5.5625 C 2.125 -5.445312 2.300781 -5.332031 2.53125 -5.21875 C 2.757812 -5.113281 3.070312 -5.007812 3.46875 -4.90625 C 3.9375 -4.789062 4.332031 -4.664062 4.65625 -4.53125 C 4.976562 -4.394531 5.25 -4.234375 5.46875 -4.046875 C 5.988281 -3.617188 6.25 -3.050781 6.25 -2.34375 Z M 6.25 -2.34375 "/></g></g></g></svg>